<svg xmlns="http://www.w3.org/2000/svg" width="667" height="374" viewBox="0 0 667 374">
<g>
<path d="M 122.04 247.81 C119.48,245.06 119.47,243.53 122.00,241.00 C123.86,239.14 125.33,239.00 143.63,239.00 C161.82,239.00 163.51,238.85 166.66,236.90 C170.09,234.78 173.00,230.45 173.00,227.47 C173.00,226.58 171.68,224.53 170.08,222.92 C167.23,220.08 166.88,220.00 157.11,220.00 C144.70,220.00 137.74,217.71 131.00,211.41 C123.76,204.63 121.54,199.28 121.52,188.50 C121.50,181.20 121.93,178.56 123.80,174.50 C130.04,160.93 145.00,153.11 159.05,156.09 C169.34,158.27 175.83,163.10 181.12,172.50 L 184.50 178.50 L 184.50 204.50 L 184.50 230.50 L 181.81 235.08 C180.32,237.60 177.31,241.29 175.11,243.28 C168.87,248.92 163.59,250.00 142.36,250.00 C124.84,250.00 123.99,249.91 122.04,247.81 ZM 162.98 206.75 C171.81,202.24 176.54,192.32 174.18,183.25 C171.34,172.39 163.43,166.00 152.80,166.00 C129.67,166.00 122.56,197.41 143.50,207.10 C149.16,209.73 157.45,209.58 162.98,206.75 ZM 190.31 218.75 C189.87,218.06 189.36,197.57 189.17,173.20 C188.87,133.82 189.01,128.64 190.44,126.45 C192.35,123.54 195.05,123.30 197.35,125.83 C198.83,127.47 199.00,132.19 199.00,172.63 C199.00,206.27 198.70,217.90 197.80,218.80 C196.23,220.37 191.34,220.34 190.31,218.75 ZM 219.46 217.63 C213.06,214.65 206.59,207.40 205.12,201.55 C204.48,199.04 204.00,188.66 204.00,177.63 C204.00,161.25 204.25,157.89 205.57,156.57 C207.66,154.48 210.31,154.58 212.35,156.83 C213.76,158.40 214.00,161.40 214.00,177.88 C214.00,198.68 214.30,200.14 219.66,205.16 C224.70,209.89 233.06,210.72 239.73,207.14 C240.94,206.50 243.17,204.33 244.71,202.32 L 247.50 198.66 L 247.81 178.32 L 248.11 157.97 L 250.60 156.34 C252.73,154.95 253.45,154.90 255.57,156.04 C256.94,156.77 258.32,158.41 258.64,159.69 C258.96,160.96 259.04,170.22 258.82,180.25 C258.37,200.53 257.51,203.93 250.96,211.40 C243.71,219.65 229.74,222.42 219.46,217.63 ZM 282.62 218.19 C276.46,216.14 269.21,209.69 265.99,203.37 C263.82,199.13 263.50,197.21 263.52,188.50 C263.54,179.68 263.88,177.77 266.36,172.36 C269.81,164.84 273.74,160.91 281.26,157.48 C292.27,152.45 304.26,154.48 312.83,162.84 C322.64,172.40 322.24,185.65 311.98,191.15 C309.00,192.75 306.16,193.00 291.16,193.00 L 273.78 193.00 L 274.47 195.75 C275.42,199.55 279.29,204.40 283.41,206.94 C286.64,208.94 288.34,209.09 310.02,209.30 C322.75,209.43 333.35,209.24 333.56,208.90 C333.78,208.55 333.07,207.47 332.00,206.50 C327.48,202.41 324.68,189.38 326.50,180.96 C328.40,172.17 335.98,162.53 344.00,158.72 C350.24,155.76 371.73,154.88 374.33,157.47 C376.43,159.57 376.47,162.39 374.43,164.43 C373.21,165.65 370.62,166.00 362.92,166.00 C354.81,166.00 352.13,166.40 348.38,168.16 C337.22,173.41 332.84,188.49 339.45,198.90 C344.47,206.79 349.41,209.00 362.03,209.00 C371.64,209.00 374.27,209.77 376.05,213.09 C376.89,214.67 376.78,215.69 375.55,217.57 L 373.95 220.00 L 330.73 219.90 C293.72,219.82 286.80,219.58 282.62,218.19 ZM 309.01 180.49 C310.92,178.19 308.29,172.36 303.66,168.61 C300.26,165.86 299.08,165.50 293.49,165.50 C288.08,165.50 286.56,165.93 282.91,168.50 C278.75,171.43 273.50,179.38 274.58,181.12 C274.87,181.61 282.46,182.00 291.44,182.00 C304.77,182.00 307.98,181.72 309.01,180.49 ZM 382.04 218.07 C381.39,216.86 381.00,205.20 381.00,187.09 L 381.00 158.05 L 383.54 156.38 C385.58,155.05 386.57,154.94 388.54,155.84 C389.89,156.45 391.01,157.30 391.02,157.73 C391.07,160.64 392.79,160.83 397.46,158.47 C404.25,155.03 411.33,155.04 413.59,158.50 C415.11,160.82 415.11,161.18 413.59,163.50 C412.52,165.14 411.02,166.01 409.23,166.02 C404.81,166.06 398.48,169.50 395.38,173.56 L 392.50 177.34 L 392.23 196.42 C392.06,208.28 391.53,216.35 390.81,217.75 C389.30,220.71 383.56,220.92 382.04,218.07 ZM 422.46 217.63 C407.31,210.58 404.05,190.27 417.02,183.75 C419.92,182.29 423.30,182.00 437.36,182.00 L 454.22 182.00 L 453.54 179.25 C452.68,175.76 447.59,170.38 442.79,167.91 C440.09,166.52 437.00,166.00 431.47,166.00 C427.29,166.00 423.00,165.53 421.93,164.96 C419.48,163.65 419.22,157.51 421.58,156.61 C422.45,156.27 433.48,156.00 446.08,156.00 L 469.00 156.00 L 469.00 151.54 C469.00,144.56 472.32,137.09 477.74,131.85 C484.01,125.80 489.57,124.00 502.02,124.00 C512.64,124.00 515.00,125.12 515.00,130.17 C515.00,133.84 511.44,135.00 500.10,135.00 C490.87,135.00 490.07,135.17 486.30,137.90 C481.89,141.09 479.00,146.88 479.00,152.52 L 479.00 156.00 L 485.07 156.00 C492.67,156.00 495.00,157.17 495.00,160.98 C495.00,164.75 493.83,165.40 486.00,166.00 L 479.50 166.50 L 479.23 191.92 C479.06,208.62 478.59,217.79 477.86,218.67 C476.17,220.70 471.24,220.32 470.04,218.07 C469.41,216.90 469.00,207.21 469.00,193.57 L 469.00 171.00 L 464.99 171.00 L 460.97 171.00 L 462.55 174.75 C464.81,180.12 465.48,214.47 463.39,217.75 C461.33,220.98 456.69,220.81 455.16,217.45 C454.52,216.05 453.99,214.14 453.98,213.20 C453.97,212.05 453.72,211.89 453.21,212.69 C452.80,213.34 449.68,215.25 446.29,216.94 C438.29,220.90 430.00,221.14 422.46,217.63 ZM 444.99 206.63 C448.73,204.15 452.15,199.56 453.45,195.25 L 454.13 193.00 L 437.77 193.00 C420.39,193.00 419.00,193.35 419.00,197.77 C419.00,208.23 434.55,213.54 444.99,206.63 ZM 531.00 218.33 C525.43,215.93 521.53,212.51 517.89,206.83 L 514.50 201.55 L 514.15 183.77 L 513.81 166.00 L 508.84 166.00 C502.31,166.00 500.00,164.70 500.00,161.00 C500.00,157.29 502.31,156.00 508.93,156.00 L 514.00 156.00 L 514.00 150.02 C514.00,144.75 514.29,143.85 516.50,142.41 C518.82,140.89 519.18,140.89 521.50,142.41 C523.71,143.85 524.00,144.75 524.00,150.02 L 524.00 156.00 L 533.57 156.00 C544.55,156.00 547.00,156.88 547.00,160.84 C547.00,165.39 545.50,166.00 534.30,166.00 L 524.00 166.00 L 524.02 181.25 C524.03,195.20 524.22,196.84 526.28,200.47 C529.15,205.54 533.68,208.58 539.72,209.48 C545.35,210.31 547.00,211.44 547.00,214.47 C547.00,219.69 538.77,221.68 531.00,218.33 Z" fill="rgba(0,0,0,1)"/>
</g>
</svg>